<svg width="10" height="7" viewBox="0 0 10 7" fill="none" xmlns="http://www.w3.org/2000/svg">
<path fill-rule="evenodd" clip-rule="evenodd" d="M5.44623 3.24996L6.31218 2.75001C6.72639 3.46744 7.83764 3.60133 8.79423 3.04904C9.75081 2.49676 10.1905 1.46744 9.77628 0.750006C9.36206 0.032567 8.25081 -0.101317 7.29423 0.450968C6.54008 0.886374 6.10721 1.61827 6.16073 2.26009L5.01315 2.92265L1.36603 0.816987C0.887733 0.540844 0.276142 0.704719 0 1.18301L4.01315 3.5L0 5.81699C0.276142 6.29529 0.887733 6.45916 1.36603 6.18302L5.01315 4.07735L6.16073 4.73991C6.10721 5.38174 6.54008 6.11363 7.29423 6.54904C8.25081 7.10132 9.36206 6.96744 9.77628 6.25C10.1905 5.53256 9.75081 4.50325 8.79423 3.95096C7.83764 3.39868 6.72639 3.53256 6.31218 4.25L5.44623 3.75004C5.45491 3.73498 5.46278 3.7195 5.46981 3.70368C5.49921 3.63798 5.51328 3.56861 5.51322 3.5C5.51328 3.43139 5.49921 3.36202 5.46982 3.29632C5.46278 3.28051 5.45491 3.26503 5.44623 3.24996ZM8.67884 0.62075C9.01046 0.660705 9.23249 0.808138 9.34327 1.00001C9.45404 1.19187 9.47071 1.45788 9.3395 1.76505C9.20821 2.07239 8.93789 2.38875 8.54423 2.61603C8.15057 2.84331 7.74143 2.91924 7.40962 2.87926C7.078 2.83931 6.85596 2.69187 6.74519 2.50001C6.63441 2.30814 6.61775 2.04213 6.74896 1.73496C6.88025 1.42762 7.15057 1.11126 7.54423 0.883981C7.93789 0.6567 8.34702 0.580774 8.67884 0.62075ZM8.67884 6.37925C9.01046 6.3393 9.23249 6.19187 9.34327 6C9.45404 5.80813 9.47071 5.54213 9.3395 5.23496C9.20821 4.92761 8.93789 4.61125 8.54423 4.38397C8.15057 4.15669 7.74144 4.08077 7.40962 4.12074C7.078 4.1607 6.85596 4.30813 6.74519 4.5C6.63441 4.69187 6.61775 4.95787 6.74896 5.26504C6.88025 5.57239 7.15057 5.88874 7.54423 6.11602C7.93789 6.34331 8.34702 6.41923 8.67884 6.37925Z" fill="white"/>
</svg>
